<svg width="48" height="48" viewBox="0 0 48 48" fill="none" xmlns="http://www.w3.org/2000/svg">
<mask id="mask0_758_62" style="mask-type:alpha" maskUnits="userSpaceOnUse" x="0" y="0" width="48" height="48">
<rect width="48" height="48" fill="#D9D9D9"/>
</mask>
<g mask="url(#mask0_758_62)">
<path d="M12 24.1C12 24.6333 12.0333 25.1583 12.1 25.675C12.1667 26.1916 12.2833 26.7 12.45 27.2C12.6167 27.7666 12.6 28.3083 12.4 28.825C12.2 29.3416 11.85 29.7166 11.35 29.95C10.8167 30.2166 10.2917 30.2416 9.775 30.025C9.25833 29.8083 8.91667 29.4166 8.75 28.85C8.48333 28.0833 8.29167 27.3 8.175 26.5C8.05833 25.7 8 24.9 8 24.1C8 19.6333 9.55 15.8333 12.65 12.7C15.75 9.56664 19.5333 7.99998 24 7.99998H24.35L22.55 6.19998C22.1833 5.83331 22 5.36664 22 4.79998C22 4.23331 22.1833 3.76664 22.55 3.39998C22.9167 3.03331 23.3833 2.84998 23.95 2.84998C24.5167 2.84998 24.9833 3.03331 25.35 3.39998L30.55 8.59998C30.95 8.99998 31.15 9.46664 31.15 9.99998C31.15 10.5333 30.95 11 30.55 11.4L25.35 16.6C24.9833 16.9666 24.5167 17.15 23.95 17.15C23.3833 17.15 22.9167 16.9666 22.55 16.6C22.1833 16.2333 22 15.7666 22 15.2C22 14.6333 22.1833 14.1666 22.55 13.8L24.35 12H24C20.6667 12 17.8333 13.175 15.5 15.525C13.1667 17.875 12 20.7333 12 24.1ZM36 23.9C36 23.3666 35.9667 22.8416 35.9 22.325C35.8333 21.8083 35.7167 21.3 35.55 20.8C35.3833 20.2333 35.4 19.6916 35.6 19.175C35.8 18.6583 36.15 18.2833 36.65 18.05C37.1833 17.7833 37.7083 17.7583 38.225 17.975C38.7417 18.1916 39.0833 18.5833 39.25 19.15C39.5167 19.9166 39.7083 20.7 39.825 21.5C39.9417 22.3 40 23.1 40 23.9C40 28.3666 38.45 32.1666 35.35 35.3C32.25 38.4333 28.4667 40 24 40H23.65L25.45 41.8C25.8167 42.1666 26 42.6333 26 43.2C26 43.7666 25.8167 44.2333 25.45 44.6C25.0833 44.9666 24.6167 45.15 24.05 45.15C23.4833 45.15 23.0167 44.9666 22.65 44.6L17.45 39.4C17.05 39 16.85 38.5333 16.85 38C16.85 37.4666 17.05 37 17.45 36.6L22.65 31.4C23.0167 31.0333 23.4833 30.85 24.05 30.85C24.6167 30.85 25.0833 31.0333 25.45 31.4C25.8167 31.7666 26 32.2333 26 32.8C26 33.3666 25.8167 33.8333 25.45 34.2L23.65 36H24C27.3333 36 30.1667 34.825 32.5 32.475C34.8333 30.125 36 27.2666 36 23.9Z" fill="white"/>
</g>
</svg>
